<?xml version="1.0" encoding="UTF-8"?>
<svg version="1.1" xmlns="http://www.w3.org/2000/svg" width="392" height="147">
<path d="M0 0 C129.36 0 258.72 0 392 0 C392 48.51 392 97.02 392 147 C262.64 147 133.28 147 0 147 C0 98.49 0 49.98 0 0 Z " fill="#1F1F1F" transform="translate(0,0)"/>
<path d="M0 0 C5.28 0 10.56 0 16 0 C16 20.79 16 41.58 16 63 C23.92 63 31.84 63 40 63 C40 56.73 40 50.46 40 44 C46.6 44 53.2 44 60 44 C60.226875 46.475 60.45375 48.95 60.6875 51.5 C61.63230331 59.83388617 63.79165041 64.71703763 69.6875 70.75 C73.6254682 73.79908299 78.34748603 75.3541502 83 77 C83 79.97 83 82.94 83 86 C68.81 86 54.62 86 40 86 C40 83.03 40 80.06 40 77 C26.8 77 13.6 77 0 77 C0 51.59 0 26.18 0 0 Z " fill="#D6D6D6" transform="translate(159,35)"/>
<path d="M0 0 C4.7738845 0.5306308 6.89682049 3.99111521 9.75 7.5 C10.81182792 8.77399795 11.87432983 10.04743446 12.9375 11.3203125 C13.45570312 11.94583008 13.97390625 12.57134766 14.5078125 13.21582031 C16.54020883 15.64591724 18.63795641 18.01403699 20.75 20.375 C21.38421875 21.08398438 22.0184375 21.79296875 22.671875 22.5234375 C23.11015625 23.01070312 23.5484375 23.49796875 24 24 C22.66240755 27.04236714 21.29407555 28.87624998 18.75 31 C17.68652344 31.90105469 17.68652344 31.90105469 16.6015625 32.8203125 C15.74304688 33.53960937 14.88453125 34.25890625 14 35 C11.70397648 36.95324888 9.41449898 38.91411074 7.125 40.875 C6.51712646 41.39425049 5.90925293 41.91350098 5.28295898 42.44848633 C1.74469687 45.47770044 -1.74335996 48.55097056 -5.1875 51.6875 C-9.48230105 55.58672727 -13.92980619 59.26436722 -18.4375 62.9140625 C-21.67739086 65.55141268 -24.84317799 68.26408759 -28 71 C-32.47165919 69.39916735 -34.88676467 65.92003135 -37.8125 62.375 C-38.87600419 61.10912467 -39.93980507 59.84349854 -41.00390625 58.578125 C-41.5158252 57.96517578 -42.02774414 57.35222656 -42.55517578 56.72070312 C-44.42354647 54.49558035 -46.33120298 52.30669968 -48.25 50.125 C-48.79140625 49.50882813 -49.3328125 48.89265625 -49.890625 48.2578125 C-50.43976562 47.63519531 -50.43976562 47.63519531 -51 47 C-49.5045292 43.40278644 -47.47293692 41.36902779 -44.5625 38.8125 C-43.66273437 38.02101562 -42.76296875 37.22953125 -41.8359375 36.4140625 C-39.15157755 34.12902883 -36.43146731 31.90037687 -33.6875 29.6875 C-28.88027037 25.80239058 -24.36278485 21.68290398 -19.85644531 17.4597168 C-15.50624607 13.40659482 -10.99778879 9.63583832 -6.33984375 5.9375 C-3.93921612 4.0490799 -3.93921612 4.0490799 -1.94140625 1.6875 C-1.30074219 1.130625 -0.66007812 0.57375 0 0 Z " fill="#D6D6D6" transform="translate(66,33)"/>
<path d="M0 0 C16.83 0 33.66 0 51 0 C51 4.29 51 8.58 51 13 C39.45 13 27.9 13 16 13 C16 19.27 16 25.54 16 32 C26.23 32 36.46 32 47 32 C47 36.29 47 40.58 47 45 C36.77 45 26.54 45 16 45 C16 55.56 16 66.12 16 77 C10.72 77 5.44 77 0 77 C0 51.59 0 26.18 0 0 Z " fill="#D8D8D8" transform="translate(97,35)"/>
<path d="M0 0 C14.19 0 28.38 0 43 0 C43 14.19 43 28.38 43 43 C40.69 43 38.38 43 36 43 C36 34.09 36 25.18 36 16 C30.72 16 25.44 16 20 16 C20 24.91 20 33.82 20 43 C13.4 43 6.8 43 0 43 C0 28.81 0 14.62 0 0 Z " fill="#CFCFCF" transform="translate(199,19)"/>
<path d="M0 0 C13.86 0 27.72 0 42 0 C42 4.95 42 9.9 42 15 C39.69 15.33 37.38 15.66 35 16 C35.5053125 16.70382813 36.010625 17.40765625 36.53125 18.1328125 C42.01996627 26.47479 42.6946418 32.07654567 42 42 C35.73 42 29.46 42 23 42 C23 33.09 23 24.18 23 15 C17.72 15 12.44 15 7 15 C7 23.91 7 32.82 7 42 C4.69 42 2.38 42 0 42 C0 28.14 0 14.28 0 0 Z " fill="#D5D5D5" transform="translate(259,20)"/>
<path d="M0 0 C6.27 0 12.54 0 19 0 C20.12478032 20.80843585 20.12478032 20.80843585 12.75 30.078125 C12.1725 30.71234375 11.595 31.3465625 11 32 C13.64 32.33 16.28 32.66 19 33 C19 35.97 19 38.94 19 42 C5.14 42 -8.72 42 -23 42 C-23 39.03 -23 36.06 -23 33 C-22.2265625 32.74347656 -21.453125 32.48695312 -20.65625 32.22265625 C-12.09953091 29.07742658 -6.015351 24.98044615 -1.828125 16.67578125 C-0.78992445 13.32121815 -0.57142448 10.19040322 -0.375 6.6875 C-0.25125 4.480625 -0.1275 2.27375 0 0 Z " fill="#D5D5D5" transform="translate(282,79)"/>
<path d="M0 0 C13.86 0 27.72 0 42 0 C42 4.95 42 9.9 42 15 C36.06 15 30.12 15 24 15 C23.01 17.475 23.01 17.475 22 20 C21.08948724 21.71009756 20.14754599 23.40372345 19.1796875 25.08203125 C18.64472656 26.01337891 18.10976563 26.94472656 17.55859375 27.90429688 C17.00300781 28.86400391 16.44742187 29.82371094 15.875 30.8125 C15.31167969 31.79154297 14.74835938 32.77058594 14.16796875 33.77929688 C12.78155585 36.18789555 11.39214945 38.59471395 10 41 C9.34 41 8.68 41 8 41 C-2.46682554 28.36037363 -0.62843473 15.86797683 0 0 Z " fill="#D8D8D8" transform="translate(318,20)"/>
<path d="M0 0 C0.66 0 1.32 0 2 0 C3.03556024 1.76888468 3.9774926 3.59272671 4.87890625 5.43359375 C10.36699292 17.43662352 10.36699292 17.43662352 19.37011719 26.28222656 C24.35751371 27.52856905 29.01448899 27.03127461 34 26 C34 28.97 34 31.94 34 35 C20.14 35 6.28 35 -8 35 C-9.12251826 12.12869046 -9.12251826 12.12869046 -1.9453125 2.0703125 C-1.30335938 1.38710937 -0.66140625 0.70390625 0 0 Z " fill="#D8D8D8" transform="translate(326,86)"/>
<path d="M0 0 C5.94 0 11.88 0 18 0 C18 9.57 18 19.14 18 29 C14.97186211 25.97186211 13.16360952 23.94011933 11.0546875 20.41015625 C10.53519531 19.54326172 10.01570313 18.67636719 9.48046875 17.78320312 C8.95066406 16.88537109 8.42085938 15.98753906 7.875 15.0625 C7.33746094 14.16853516 6.79992187 13.27457031 6.24609375 12.35351562 C3.80068988 8.24633481 1.78753764 4.4688441 0 0 Z " fill="#D6D6D6" transform="translate(342,79)"/>
<path d="M0 0 C0.33 0 0.66 0 1 0 C1 8.25 1 16.5 1 25 C-3.95 25 -8.9 25 -14 25 C-12.54662168 21.36655419 -11.19122358 18.43833154 -9.21484375 15.13671875 C-8.68439453 14.25048828 -8.15394531 13.36425781 -7.60742188 12.45117188 C-6.78081055 11.0831543 -6.78081055 11.0831543 -5.9375 9.6875 C-5.38255859 8.75615234 -4.82761719 7.82480469 -4.25585938 6.86523438 C-3.72669922 5.98544922 -3.19753906 5.10566406 -2.65234375 4.19921875 C-2.16757568 3.39315186 -1.68280762 2.58708496 -1.18334961 1.7565918 C-0.79284424 1.1769165 -0.40233887 0.59724121 0 0 Z " fill="#D3D3D3" transform="translate(359,37)"/>
<path d="M0 0 C2.31 0 4.62 0 7 0 C7.34422689 5.73711481 7.36694489 10.06983069 4 15 C2.02 15.99 2.02 15.99 0 17 C0 11.39 0 5.78 0 0 Z " fill="#D4D4D4" transform="translate(259,79)"/>
<path d="M0 0 C2.31 0 4.62 0 7 0 C7 5.61 7 11.22 7 17 C2.35798983 14.67899492 1.73231841 13.76387563 0 9 C-0.23152132 5.98037088 -0.18126989 3.02116482 0 0 Z " fill="#C8C8C8" transform="translate(235,79)"/>
</svg>
